<?xml version="1.0" standalone="no"?>
<!DOCTYPE svg PUBLIC "-//W3C//DTD SVG 20010904//EN"
 "http://www.w3.org/TR/2001/REC-SVG-20010904/DTD/svg10.dtd">
<svg version="1.0" xmlns="http://www.w3.org/2000/svg"
 width="480.000000pt" height="480.000000pt" viewBox="0 0 480.000000 480.000000"
 preserveAspectRatio="xMidYMid meet">
<metadata>
Created by potrace 1.11, written by Peter Selinger 2001-2013
</metadata>
<g transform="translate(0.000000,480.000000) scale(0.100000,-0.100000)"
fill="#000000" stroke="none">
<path d="M2420 4768 c-11 -18 -20 -37 -21 -43 0 -5 -2 -17 -4 -25 -17 -81 -20
-148 -18 -430 1 -179 4 -381 7 -450 12 -258 14 -297 20 -370 3 -41 8 -104 11
-140 3 -36 7 -76 10 -90 2 -14 7 -55 10 -92 3 -37 8 -77 10 -90 3 -13 7 -41
10 -63 3 -22 7 -47 10 -55 3 -8 7 -29 9 -45 7 -56 35 -162 60 -229 14 -37 21
-64 17 -61 -5 3 -37 -4 -70 -14 l-61 -19 -25 41 c-38 65 -56 114 -85 223 -21
79 -25 114 -20 163 7 77 5 281 -5 375 -8 85 -20 110 -77 158 -23 21 -54 47
-68 59 -75 65 -242 166 -435 264 -183 92 -228 109 -254 96 -16 -9 -19 -19 -15
-56 4 -43 3 -45 -15 -36 -30 16 -135 20 -175 6 -19 -7 -38 -10 -41 -7 -3 3 -5
0 -5 -6 0 -7 -7 -12 -16 -12 -36 0 -148 -103 -189 -175 -39 -69 -54 -191 -31
-262 6 -20 4 -21 -33 -17 -47 4 -72 -14 -64 -48 10 -42 160 -342 222 -443 79
-127 84 -135 98 -154 90 -118 148 -180 179 -192 68 -25 524 -29 564 -4 5 3 48
-13 97 -36 48 -22 117 -54 151 -70 51 -24 62 -33 57 -47 -3 -9 -11 -36 -18
-59 -6 -24 -14 -43 -17 -43 -4 0 -33 8 -66 19 -51 16 -82 25 -129 37 -70 17
-297 53 -380 59 -37 3 -166 15 -219 21 -64 6 -386 22 -626 30 -140 5 -465 8
-465 4 0 0 -29 -3 -65 -5 -64 -4 -110 -11 -140 -18 -8 -3 -30 -8 -47 -12 -39
-9 -58 -29 -49 -51 6 -15 18 -16 104 -9 224 17 512 25 512 14 0 -4 17 -6 37
-5 42 3 192 -19 238 -34 22 -7 36 -23 51 -55 l20 -44 -29 -11 c-17 -5 -32 -8
-35 -5 -3 2 -14 -1 -26 -7 -14 -8 -90 -13 -221 -14 -234 -2 -328 -9 -333 -24
-2 -5 -7 -8 -11 -6 -4 3 -8 -1 -8 -9 0 -17 1 -17 87 -15 98 3 187 3 263 0 l68
-3 -50 -50 c-59 -59 -99 -136 -108 -207 -3 -28 -9 -52 -12 -54 -3 -2 -24 -7
-46 -10 -21 -4 -43 -12 -47 -19 -6 -9 -8 -9 -8 2 0 9 -6 11 -17 6 -10 -4 -27
-8 -37 -9 -22 -1 -31 -33 -10 -33 11 0 11 3 1 16 -10 12 -9 14 6 8 10 -4 21
-7 23 -7 3 0 3 -4 0 -8 -3 -5 1 -9 9 -9 11 0 12 4 4 13 -7 8 -6 14 2 20 7 4
10 3 7 -2 -3 -5 0 -15 8 -22 8 -7 14 -9 14 -5 0 4 23 8 50 8 49 1 51 0 60 -35
6 -19 21 -54 34 -77 l24 -41 -32 -13 c-38 -16 -47 -28 -40 -54 10 -32 32 -52
149 -133 372 -258 579 -382 645 -387 47 -3 173 31 275 75 27 12 66 28 85 37
19 8 46 21 60 29 107 62 125 66 274 61 126 -5 177 -9 226 -20 8 -2 33 -7 55
-11 22 -5 45 -11 50 -15 6 -3 15 -6 20 -7 25 -5 98 -43 85 -44 -51 -7 -124
-10 -270 -14 -91 -2 -185 -7 -210 -11 -25 -4 -54 -8 -65 -10 -11 -1 -20 -3
-20 -5 0 -1 -15 -4 -32 -6 -39 -6 -221 -65 -278 -90 -22 -10 -42 -18 -45 -19
-11 -2 -126 -56 -140 -65 -8 -5 -29 -16 -46 -24 -17 -7 -78 -42 -135 -77 -121
-73 -209 -114 -264 -125 -22 -4 -42 -6 -44 -5 -2 2 -7 -3 -12 -10 -14 -23 20
-47 90 -62 36 -8 73 -15 81 -16 8 0 44 -2 80 -5 238 -16 437 10 625 82 39 14
73 26 77 24 3 -1 12 5 18 13 7 8 18 15 25 15 7 0 30 8 51 17 22 9 44 18 49 19
21 5 201 86 213 96 6 6 12 8 12 5 0 -3 23 5 52 18 45 21 54 22 77 11 28 -14
116 -44 147 -50 10 -2 37 -9 59 -14 43 -11 98 -21 155 -28 19 -3 122 -6 228
-9 174 -4 195 -6 221 -25 16 -11 32 -20 35 -20 3 0 50 -28 103 -62 147 -94
167 -107 178 -116 6 -5 24 -17 40 -28 28 -18 227 -175 270 -213 11 -9 81 -66
155 -126 74 -60 140 -114 147 -119 6 -6 23 -20 37 -31 15 -11 33 -26 41 -33
19 -17 31 -15 56 10 38 41 70 99 72 131 2 44 -27 97 -66 124 -17 13 -46 35
-64 50 -17 16 -43 37 -57 47 -32 23 -32 30 -2 62 l23 26 44 -47 c24 -26 60
-64 79 -85 19 -21 82 -88 139 -149 l104 -111 71 73 c39 40 82 85 95 100 l25
27 -182 180 c-100 100 -182 183 -182 187 0 3 10 14 22 25 22 18 23 18 36 1
100 -137 138 -178 181 -196 42 -18 89 -7 140 32 62 46 69 56 58 77 -15 26
-158 198 -169 202 -4 2 -8 10 -8 17 0 7 -3 15 -7 17 -7 2 -55 59 -113 131 -8
11 -19 24 -25 31 -5 6 -46 56 -91 111 -77 95 -81 102 -81 151 -1 28 -6 62 -13
74 -16 31 -61 80 -73 80 -27 0 -105 103 -145 192 -48 104 -55 138 -58 263 -4
208 -32 367 -89 520 l-26 69 25 56 c37 82 60 134 61 140 0 3 11 27 23 54 12
27 22 54 22 60 0 7 4 16 9 22 16 17 110 270 130 350 11 43 23 106 27 139 4 33
8 74 10 90 17 156 -10 434 -48 487 -21 30 -48 28 -48 -5 0 -24 -32 -130 -41
-137 -3 -3 -10 -16 -14 -30 -4 -14 -13 -32 -20 -40 -7 -8 -20 -30 -30 -49 -9
-19 -21 -39 -27 -45 -23 -27 -148 -278 -180 -361 -27 -72 -77 -224 -84 -254
-3 -14 -7 -39 -10 -56 -3 -16 -9 -46 -13 -65 -4 -19 -8 -100 -9 -180 -2 -155
-11 -312 -18 -320 -11 -10 -55 102 -68 170 -27 144 -26 132 -29 290 l-3 125
67 130 c64 123 138 321 140 368 0 12 -2 36 -6 52 -7 33 -92 197 -136 263 -16
24 -29 45 -29 47 0 6 -131 210 -215 334 -102 152 -137 171 -175 94 l-15 -31
-35 24 c-19 14 -52 29 -72 34 l-36 10 6 63 c3 34 6 74 6 90 0 15 5 27 11 27
12 0 -16 20 -29 20 -4 0 -6 -7 -2 -15 3 -9 0 -15 -9 -15 -8 0 -15 -5 -15 -11
0 -5 4 -8 9 -5 5 3 15 -2 22 -12 13 -15 12 -16 -3 -4 -10 8 -19 9 -22 3 -3 -5
0 -12 6 -14 10 -4 10 -6 1 -6 -7 -1 -13 -6 -13 -12 0 -5 6 -7 13 -4 6 4 4 0
-5 -8 -11 -9 -18 -28 -18 -49 l0 -35 -58 -7 c-74 -8 -168 -53 -215 -101 -21
-21 -38 -34 -38 -29 -5 38 -8 84 -9 109 0 17 0 41 -1 55 -2 35 -1 82 4 176 3
63 0 81 -10 81 -8 0 -12 -6 -9 -13 3 -8 0 -11 -10 -7 -10 3 -14 -2 -15 -18 0
-13 -2 -40 -5 -59 -2 -19 -4 -123 -5 -230 -1 -148 -5 -203 -16 -230 -18 -41
-18 -43 -28 -97 l-7 -41 -33 19 c-33 20 -58 79 -72 169 -2 14 -6 41 -9 60 -10
64 -12 474 -3 560 15 147 16 155 7 173 -13 25 -26 21 -48 -15z m668 -2191 c28
-17 52 -35 52 -39 0 -4 5 -8 12 -8 13 0 151 -139 168 -169 9 -18 2 -15 -37 13
-62 44 -195 125 -254 154 -66 32 -77 48 -58 84 11 21 37 13 117 -35z m493
-739 c53 -108 66 -140 75 -198 14 -86 90 -252 138 -303 36 -39 37 -43 10 -72
-25 -27 -25 -27 -47 -9 -64 55 -123 134 -166 222 -26 52 -65 160 -63 172 0 3
-3 10 -7 15 -10 12 -7 97 3 114 4 6 4 11 -1 11 -4 0 -7 24 -6 52 1 29 2 63 2
76 1 12 3 22 6 22 3 0 28 -46 56 -102z m-1350 -25 c10 -18 32 -58 49 -90 40
-75 44 -81 117 -191 57 -86 60 -91 31 -75 -83 48 -287 292 -275 327 2 6 1 21
-4 32 -10 28 -5 33 33 31 24 -2 36 -10 49 -34z m997 -538 c94 -23 352 -195
352 -234 0 -20 -96 -86 -104 -72 -13 20 -144 99 -206 123 -36 14 -98 33 -138
42 -40 9 -127 43 -195 75 l-122 58 100 0 c125 1 191 4 204 12 12 8 71 6 109
-4z"/>
<path d="M3030 4418 c0 -6 3 -8 7 -5 3 4 13 1 22 -6 14 -11 14 -10 2 6 -15 20
-31 22 -31 5z"/>
</g>
</svg>
